<svg width="13" height="12" viewBox="0 0 13 12" fill="none" xmlns="http://www.w3.org/2000/svg">
<path d="M2.27504 0.794189C1.5887 0.794189 1.0328 1.35009 1.0328 2.03643V5.14203H2.27504V3.89979C2.27504 3.55693 2.5533 3.27867 2.89616 3.27867H5.38064C5.7235 3.27867 6.00176 3.55693 6.00176 3.89979V5.14203H7.244V3.89979C7.244 3.55693 7.52226 3.27867 7.86512 3.27867H10.3496C10.6925 3.27867 10.9707 3.55693 10.9707 3.89979V5.14203H12.213V2.03643C12.213 1.35009 11.6571 0.794189 10.9707 0.794189L2.27504 0.794189ZM1.65392 6.38427C0.967585 6.38427 0.411682 6.94017 0.411682 7.62651V11.9744H1.65392V10.7321H11.5918V11.9744H12.8341V7.62651C12.8341 6.94017 12.2782 6.38427 11.5918 6.38427H1.65392Z" fill="#A4A4A4"/>
</svg>
