<svg width="14" height="14" viewBox="0 0 14 14" fill="none" xmlns="http://www.w3.org/2000/svg">
<path d="M2.54571 13.8053L3.7314 12.6196C4.66964 13.2353 5.78927 13.5967 6.99303 13.5967C8.19622 13.5967 9.31535 13.2356 10.2533 12.6203L11.4383 13.8053C11.6878 14.0548 12.0921 14.0548 12.3417 13.8053C12.5912 13.5559 12.5912 13.1512 12.3417 12.9019L11.2458 11.8061C12.3019 10.7298 12.9558 9.25747 12.9558 7.6339C12.9558 4.34578 10.2811 1.67114 6.99303 1.67114C3.70499 1.67114 1.03027 4.34578 1.03027 7.6339C1.03027 9.25683 1.68379 10.7287 2.73924 11.8049L1.64231 12.9019C1.39277 13.1512 1.39277 13.5559 1.64231 13.8053C1.89185 14.0548 2.29617 14.0548 2.54571 13.8053ZM6.35416 5.26583C6.35416 4.91228 6.63952 4.62696 6.99303 4.62696C7.34657 4.62696 7.63189 4.91228 7.63189 5.26583V6.92684L9.35257 8.64752C9.5996 8.89885 9.5996 9.30342 9.35257 9.5505C9.11551 9.79556 8.69624 9.80553 8.44964 9.5505L6.54152 7.64241C6.42231 7.52316 6.35416 7.36127 6.35416 7.19095V5.26583Z" fill="#A4A4A4"/>
<path d="M13.0714 5.05744C13.5357 4.55065 13.8083 3.88193 13.8083 3.1707C13.8083 1.62886 12.5518 0.368164 11.0058 0.368164C10.1752 0.368164 9.41709 0.725844 8.90173 1.31795C10.7843 1.88441 12.3133 3.26862 13.0714 5.05744Z" fill="#A4A4A4"/>
<path d="M5.13522 1.30102C4.60709 0.717562 3.84896 0.364014 3.02266 0.364014C1.45535 0.364014 0.177612 1.64175 0.177612 3.20906C0.177612 3.91615 0.445936 4.58475 0.897359 5.09593C1.65978 3.27303 3.21436 1.86326 5.13522 1.30102Z" fill="#A4A4A4"/>
</svg>
