<svg width="10" height="10" viewBox="0 0 10 10" fill="none" xmlns="http://www.w3.org/2000/svg">
<path d="M9.43156 5.50838C9.33267 5.48355 9.23379 5.50838 9.14726 5.57044C8.82587 5.84353 8.45504 6.06696 8.04713 6.21591C7.66394 6.36486 7.24367 6.43934 6.79867 6.43934C5.79743 6.43934 4.88272 6.02972 4.22758 5.37184C3.57245 4.71396 3.16454 3.79542 3.16454 2.78998C3.16454 2.36794 3.2387 1.95832 3.36231 1.58594C3.49828 1.18873 3.69606 0.828758 3.95564 0.518438C4.06689 0.381897 4.04217 0.183292 3.9062 0.0715772C3.81967 0.00951325 3.72078 -0.0153123 3.62189 0.00951325C2.57121 0.295007 1.6565 0.92806 1.00136 1.77213C0.370952 2.60379 0.00012207 3.63405 0.00012207 4.7512C0.00012207 6.10419 0.544006 7.33306 1.434 8.22678C2.32399 9.1205 3.53537 9.66667 4.89508 9.66667C6.03229 9.66667 7.08297 9.26946 7.92352 8.61158C8.77643 7.94129 9.39448 6.9855 9.65406 5.89318C9.7035 5.7194 9.60462 5.54562 9.43156 5.50838Z" fill="url(#paint0_linear_372_4000)"/>
<defs>
<linearGradient id="paint0_linear_372_4000" x1="4.83346" y1="0" x2="4.83346" y2="9.66667" gradientUnits="userSpaceOnUse">
<stop stop-color="#4576FF"/>
<stop offset="1" stop-color="#354E93"/>
</linearGradient>
</defs>
</svg>
